<?xml version="1.0" standalone="yes"?>
<svg width="270mm" height="270mm" viewBox="0 0 9 9" xmlns="http://www.w3.org/2000/svg" shape-rendering="crispEdges">
	<rect x="0" y="0" width="9" height="9" fill="white" stroke="none"/>
	<rect width="1.02" height="1.02" x="-0.01" y="-0.01" fill="rgba(255, 255, 255, 1.000000)" stroke="none" id="box0-0"/>
	<rect width="1.02" height="1.02" x="0.99" y="-0.01" fill="rgba(0, 0, 0, 1.000000)" stroke="none" id="box1-0"/>
	<rect width="1.02" height="1.02" x="1.99" y="-0.01" fill="rgba(0, 0, 0, 1.000000)" stroke="none" id="box2-0"/>
	<rect width="1.02" height="1.02" x="2.99" y="-0.01" fill="rgba(255, 255, 255, 1.000000)" stroke="none" id="box3-0"/>
	<rect width="1.02" height="1.02" x="3.99" y="-0.01" fill="rgba(0, 0, 0, 1.000000)" stroke="none" id="box4-0"/>
	<rect width="1.02" height="1.02" x="4.99" y="-0.01" fill="rgba(0, 0, 0, 1.000000)" stroke="none" id="box5-0"/>
	<rect width="1.02" height="1.02" x="5.99" y="-0.01" fill="rgba(255, 255, 255, 1.000000)" stroke="none" id="box6-0"/>
	<rect width="1.02" height="1.02" x="6.99" y="-0.01" fill="rgba(255, 255, 255, 1.000000)" stroke="none" id="box7-0"/>
	<rect width="1.02" height="1.02" x="7.99" y="-0.01" fill="rgba(255, 255, 255, 1.000000)" stroke="none" id="box8-0"/>
	<rect width="1.02" height="1.02" x="-0.01" y="0.99" fill="rgba(255, 255, 255, 1.000000)" stroke="none" id="box0-1"/>
	<rect width="1.02" height="1.02" x="0.99" y="0.99" fill="rgba(0, 0, 0, 1.000000)" stroke="none" id="box1-1"/>
	<rect width="1.02" height="1.02" x="1.99" y="0.99" fill="rgba(0, 0, 0, 1.000000)" stroke="none" id="box2-1"/>
	<rect width="1.02" height="1.02" x="2.99" y="0.99" fill="rgba(0, 0, 0, 1.000000)" stroke="none" id="box3-1"/>
	<rect width="1.02" height="1.02" x="3.99" y="0.99" fill="rgba(0, 0, 0, 1.000000)" stroke="none" id="box4-1"/>
	<rect width="1.02" height="1.02" x="4.99" y="0.99" fill="rgba(0, 0, 0, 1.000000)" stroke="none" id="box5-1"/>
	<rect width="1.02" height="1.02" x="5.99" y="0.99" fill="rgba(0, 0, 0, 1.000000)" stroke="none" id="box6-1"/>
	<rect width="1.02" height="1.02" x="6.99" y="0.99" fill="rgba(0, 0, 0, 1.000000)" stroke="none" id="box7-1"/>
	<rect width="1.02" height="1.02" x="7.99" y="0.99" fill="rgba(0, 0, 0, 1.000000)" stroke="none" id="box8-1"/>
	<rect width="1.02" height="1.02" x="-0.01" y="1.99" fill="rgba(0, 0, 0, 1.000000)" stroke="none" id="box0-2"/>
	<rect width="1.02" height="1.02" x="0.99" y="1.99" fill="rgba(0, 0, 0, 1.000000)" stroke="none" id="box1-2"/>
	<rect width="1.02" height="1.02" x="1.99" y="1.99" fill="rgba(255, 255, 255, 1.000000)" stroke="none" id="box2-2"/>
	<rect width="1.02" height="1.02" x="2.99" y="1.99" fill="rgba(255, 255, 255, 1.000000)" stroke="none" id="box3-2"/>
	<rect width="1.02" height="1.02" x="3.99" y="1.99" fill="rgba(255, 255, 255, 1.000000)" stroke="none" id="box4-2"/>
	<rect width="1.02" height="1.02" x="4.99" y="1.99" fill="rgba(255, 255, 255, 1.000000)" stroke="none" id="box5-2"/>
	<rect width="1.02" height="1.02" x="5.99" y="1.99" fill="rgba(255, 255, 255, 1.000000)" stroke="none" id="box6-2"/>
	<rect width="1.02" height="1.02" x="6.99" y="1.99" fill="rgba(0, 0, 0, 1.000000)" stroke="none" id="box7-2"/>
	<rect width="1.02" height="1.02" x="7.99" y="1.99" fill="rgba(0, 0, 0, 1.000000)" stroke="none" id="box8-2"/>
	<rect width="1.02" height="1.02" x="-0.01" y="2.99" fill="rgba(0, 0, 0, 1.000000)" stroke="none" id="box0-3"/>
	<rect width="1.02" height="1.02" x="0.99" y="2.99" fill="rgba(0, 0, 0, 1.000000)" stroke="none" id="box1-3"/>
	<rect width="1.02" height="1.02" x="1.99" y="2.99" fill="rgba(255, 255, 255, 1.000000)" stroke="none" id="box2-3"/>
	<rect width="1.02" height="1.02" x="2.99" y="2.99" fill="rgba(255, 255, 255, 1.000000)" stroke="none" id="box3-3"/>
	<rect width="1.02" height="1.02" x="3.99" y="2.99" fill="rgba(0, 0, 0, 1.000000)" stroke="none" id="box4-3"/>
	<rect width="1.02" height="1.02" x="4.99" y="2.99" fill="rgba(255, 255, 255, 1.000000)" stroke="none" id="box5-3"/>
	<rect width="1.02" height="1.02" x="5.99" y="2.99" fill="rgba(255, 255, 255, 1.000000)" stroke="none" id="box6-3"/>
	<rect width="1.02" height="1.02" x="6.99" y="2.99" fill="rgba(0, 0, 0, 1.000000)" stroke="none" id="box7-3"/>
	<rect width="1.02" height="1.02" x="7.99" y="2.99" fill="rgba(255, 255, 255, 1.000000)" stroke="none" id="box8-3"/>
	<rect width="1.02" height="1.02" x="-0.01" y="3.99" fill="rgba(255, 255, 255, 1.000000)" stroke="none" id="box0-4"/>
	<rect width="1.02" height="1.02" x="0.99" y="3.99" fill="rgba(0, 0, 0, 1.000000)" stroke="none" id="box1-4"/>
	<rect width="1.02" height="1.02" x="1.99" y="3.99" fill="rgba(255, 255, 255, 1.000000)" stroke="none" id="box2-4"/>
	<rect width="1.02" height="1.02" x="2.99" y="3.99" fill="rgba(0, 0, 0, 1.000000)" stroke="none" id="box3-4"/>
	<rect width="1.02" height="1.02" x="3.99" y="3.99" fill="rgba(255, 255, 255, 1.000000)" stroke="none" id="box4-4"/>
	<rect width="1.02" height="1.02" x="4.99" y="3.99" fill="rgba(255, 255, 255, 1.000000)" stroke="none" id="box5-4"/>
	<rect width="1.02" height="1.02" x="5.99" y="3.99" fill="rgba(255, 255, 255, 1.000000)" stroke="none" id="box6-4"/>
	<rect width="1.02" height="1.02" x="6.99" y="3.99" fill="rgba(0, 0, 0, 1.000000)" stroke="none" id="box7-4"/>
	<rect width="1.02" height="1.02" x="7.99" y="3.99" fill="rgba(255, 255, 255, 1.000000)" stroke="none" id="box8-4"/>
	<rect width="1.02" height="1.02" x="-0.01" y="4.99" fill="rgba(0, 0, 0, 1.000000)" stroke="none" id="box0-5"/>
	<rect width="1.02" height="1.02" x="0.99" y="4.99" fill="rgba(0, 0, 0, 1.000000)" stroke="none" id="box1-5"/>
	<rect width="1.02" height="1.02" x="1.99" y="4.99" fill="rgba(255, 255, 255, 1.000000)" stroke="none" id="box2-5"/>
	<rect width="1.02" height="1.02" x="2.99" y="4.99" fill="rgba(0, 0, 0, 1.000000)" stroke="none" id="box3-5"/>
	<rect width="1.02" height="1.02" x="3.99" y="4.99" fill="rgba(255, 255, 255, 1.000000)" stroke="none" id="box4-5"/>
	<rect width="1.02" height="1.02" x="4.99" y="4.99" fill="rgba(0, 0, 0, 1.000000)" stroke="none" id="box5-5"/>
	<rect width="1.02" height="1.02" x="5.99" y="4.99" fill="rgba(255, 255, 255, 1.000000)" stroke="none" id="box6-5"/>
	<rect width="1.02" height="1.02" x="6.99" y="4.99" fill="rgba(0, 0, 0, 1.000000)" stroke="none" id="box7-5"/>
	<rect width="1.02" height="1.02" x="7.99" y="4.99" fill="rgba(0, 0, 0, 1.000000)" stroke="none" id="box8-5"/>
	<rect width="1.02" height="1.02" x="-0.01" y="5.99" fill="rgba(255, 255, 255, 1.000000)" stroke="none" id="box0-6"/>
	<rect width="1.02" height="1.02" x="0.99" y="5.99" fill="rgba(0, 0, 0, 1.000000)" stroke="none" id="box1-6"/>
	<rect width="1.02" height="1.02" x="1.99" y="5.99" fill="rgba(255, 255, 255, 1.000000)" stroke="none" id="box2-6"/>
	<rect width="1.02" height="1.02" x="2.99" y="5.99" fill="rgba(255, 255, 255, 1.000000)" stroke="none" id="box3-6"/>
	<rect width="1.02" height="1.02" x="3.99" y="5.99" fill="rgba(255, 255, 255, 1.000000)" stroke="none" id="box4-6"/>
	<rect width="1.02" height="1.02" x="4.99" y="5.99" fill="rgba(255, 255, 255, 1.000000)" stroke="none" id="box5-6"/>
	<rect width="1.02" height="1.02" x="5.99" y="5.99" fill="rgba(255, 255, 255, 1.000000)" stroke="none" id="box6-6"/>
	<rect width="1.02" height="1.02" x="6.99" y="5.99" fill="rgba(0, 0, 0, 1.000000)" stroke="none" id="box7-6"/>
	<rect width="1.02" height="1.02" x="7.99" y="5.99" fill="rgba(0, 0, 0, 1.000000)" stroke="none" id="box8-6"/>
	<rect width="1.02" height="1.02" x="-0.01" y="6.99" fill="rgba(255, 255, 255, 1.000000)" stroke="none" id="box0-7"/>
	<rect width="1.02" height="1.02" x="0.99" y="6.99" fill="rgba(0, 0, 0, 1.000000)" stroke="none" id="box1-7"/>
	<rect width="1.02" height="1.02" x="1.99" y="6.99" fill="rgba(0, 0, 0, 1.000000)" stroke="none" id="box2-7"/>
	<rect width="1.02" height="1.02" x="2.99" y="6.99" fill="rgba(0, 0, 0, 1.000000)" stroke="none" id="box3-7"/>
	<rect width="1.02" height="1.02" x="3.99" y="6.99" fill="rgba(0, 0, 0, 1.000000)" stroke="none" id="box4-7"/>
	<rect width="1.02" height="1.02" x="4.99" y="6.99" fill="rgba(0, 0, 0, 1.000000)" stroke="none" id="box5-7"/>
	<rect width="1.02" height="1.02" x="5.99" y="6.99" fill="rgba(0, 0, 0, 1.000000)" stroke="none" id="box6-7"/>
	<rect width="1.02" height="1.02" x="6.99" y="6.99" fill="rgba(0, 0, 0, 1.000000)" stroke="none" id="box7-7"/>
	<rect width="1.02" height="1.02" x="7.99" y="6.99" fill="rgba(0, 0, 0, 1.000000)" stroke="none" id="box8-7"/>
	<rect width="1.02" height="1.02" x="-0.01" y="7.99" fill="rgba(0, 0, 0, 1.000000)" stroke="none" id="box0-8"/>
	<rect width="1.02" height="1.02" x="0.99" y="7.99" fill="rgba(0, 0, 0, 1.000000)" stroke="none" id="box1-8"/>
	<rect width="1.02" height="1.02" x="1.99" y="7.99" fill="rgba(0, 0, 0, 1.000000)" stroke="none" id="box2-8"/>
	<rect width="1.02" height="1.02" x="2.99" y="7.99" fill="rgba(255, 255, 255, 1.000000)" stroke="none" id="box3-8"/>
	<rect width="1.02" height="1.02" x="3.99" y="7.99" fill="rgba(255, 255, 255, 1.000000)" stroke="none" id="box4-8"/>
	<rect width="1.02" height="1.02" x="4.99" y="7.99" fill="rgba(255, 255, 255, 1.000000)" stroke="none" id="box5-8"/>
	<rect width="1.02" height="1.02" x="5.99" y="7.99" fill="rgba(255, 255, 255, 1.000000)" stroke="none" id="box6-8"/>
	<rect width="1.02" height="1.02" x="6.99" y="7.99" fill="rgba(255, 255, 255, 1.000000)" stroke="none" id="box7-8"/>
	<rect width="1.02" height="1.02" x="7.99" y="7.99" fill="rgba(0, 0, 0, 1.000000)" stroke="none" id="box8-8"/>
</svg>
